<svg xmlns="http://www.w3.org/2000/svg" xmlns:xlink="http://www.w3.org/1999/xlink" x="0px" y="0px" viewBox="0 0 1779.3 1111.2" style="enable-background:new 0 0 1779.3 1111.2;" xml:space="preserve" fill="#fff">
<path d="M252.4,940c94.7-14.9,164.2-37.7,227.3-68.7c81.1-39.8,140.1-90.2,185.1-147.7c67.4-86,133.5-171.4,200.2-258.4
	c11.1-14.4,22.2-28.7,33.7-43.1c33.5-42.3,63-87.6,108.3-125c30.4-25.2,61-50.2,97.4-71.6c92.9-54.6,204.4-99.8,359.7-124
	c55.8-8.6,128.9-14.6,192-20.2c40-3.5,81.4-7.4,123.2-11.3V0c-39.9,3.6-79.8,7-119,10.7c-64.8,6.2-136.8,13.6-206.6,19.8
	c-71.6,6.5-137,12.2-200.9,19.2c-34.6,3.8-67.7,8.6-99.8,14.1c-151.4,26-282.5,72.8-386.4,125.5c-85.2,43.3-154.7,91.5-217,145.6
	c-30.2,26.3-58.6,55.1-81.2,85.7c-45.1,60.8-94.3,121.3-139.7,182.3c-34.2,46.4-69.9,90.8-105,136.9c-11.7,15.3-21.8,31.1-35.3,45.1
	c-27.7,28.8-61.1,52.6-107.3,73.3C54.9,870.2,27.8,879.8,0,887.1v78.4c51.8-4.9,102.6-9.7,152.6-14.6
	C187.6,947.4,221.3,944.9,252.4,940z"/>
<path d="M1591.5,162.7c-71.9,6.5-135.4,16.3-190.7,32.1c-53.9,15.3-100.7,34.3-142.3,57.2
	c-40.4,22.2-77.5,47.1-105.4,75.1c-13.9,13.9-26,29.4-37.6,44.9c-11.3,15.2-22.8,30.7-34.4,46c-23.2,30.5-47.7,60.8-71.2,91.3
	c-23.7,30.5-45.5,61.6-69.7,91.5c-24.5,30.4-47.8,61-71.2,91.3c-23.7,30.8-44.9,62-72.8,90.5c-29.1,29.7-61.1,56.4-95.6,79.7
	c-36,24.2-76.4,45.6-121.8,66.9c-89.5,41.7-199.3,72.4-339,88.4c-15.9,1.9-32.5,2.9-48.7,4.4c-62.9,6.4-126.7,12.5-190.8,18.6v70.6
	c73.4-7.2,146.9-14.7,218.8-21.6c93.6-8.9,206.9-19.3,300.1-29.6c62-6.9,123.5-17.9,184.1-32.8c57.3-14.2,111.1-29.6,159.7-47.7
	c96.8-36.3,180.7-77.7,253.2-126.8c36.2-24.4,71.2-49,100.2-75.9c29.5-27.3,57.3-55.3,81.4-84.8c24.2-29.6,47.6-59.5,70.8-89.9
	c34.6-45.2,69.8-90.2,104.6-135.8c23.1-30.2,46.9-59.9,69.9-90.3c34.4-45.4,71.4-88.8,138-119.5c28-12.9,61-24.8,98.7-33.8v-77.9
	C1716.9,150.9,1654.7,157,1591.5,162.7z"/>
</svg>
